<?xml version="1.0" standalone="no"?>
<!DOCTYPE svg PUBLIC "-//W3C//DTD SVG 20010904//EN"
 "http://www.w3.org/TR/2001/REC-SVG-20010904/DTD/svg10.dtd">
<svg version="1.0" xmlns="http://www.w3.org/2000/svg"
 width="260.000000pt" height="260.000000pt" viewBox="0 0 260.000000 260.000000"
 preserveAspectRatio="xMidYMid meet">
<metadata>
Created by potrace 1.11, written by Peter Selinger 2001-2013
</metadata>
<g transform="translate(0.000000,260.000000) scale(0.100000,-0.100000)"
fill="#000000" stroke="none">
<path d="M0 1300 l0 -1300 1300 0 1300 0 0 1300 0 1300 -1300 0 -1300 0 0
-1300z m2590 0 l0 -1290 -1290 0 -1290 0 0 1290 0 1290 1290 0 1290 0 0 -1290z"/>
<path d="M410 1295 l0 -1105 35 0 34 0 3 132 3 133 143 3 142 3 0 -136 0 -135
35 0 34 0 3 133 3 132 138 3 137 3 0 -136 0 -135 35 0 34 0 3 133 3 132 140 0
140 0 3 -133 3 -133 32 3 32 3 3 133 3 132 139 0 140 0 0 -135 0 -135 35 0 34
0 3 133 3 132 138 3 137 3 0 -136 0 -135 35 0 35 0 0 1105 0 1105 -920 0 -920
0 0 -1105z m360 785 l0 -140 -145 0 -145 0 0 140 0 140 145 0 145 0 0 -140z
m350 125 c0 -8 -13 -21 -30 -30 -75 -39 -80 -169 -8 -219 21 -15 13 -16 -110
-16 l-132 0 0 140 0 140 140 0 c117 0 140 -2 140 -15z m356 3 c4 -7 0 -16 -11
-22 -90 -50 -106 -147 -37 -218 l26 -28 -125 0 c-113 1 -122 2 -98 15 31 17
59 70 59 112 0 37 -33 90 -70 111 -16 9 -30 23 -30 30 0 17 275 17 286 0z
m354 -2 c0 -8 -13 -22 -29 -32 -77 -45 -82 -167 -9 -218 21 -15 14 -16 -96
-16 l-118 0 30 35 c17 19 34 50 37 69 9 46 -19 103 -62 128 -18 11 -33 26 -33
34 0 11 27 14 140 14 115 0 140 -3 140 -14z m350 -126 l0 -140 -126 0 -126 0
30 28 c36 33 47 68 39 119 -6 37 -47 89 -79 99 -10 3 -18 12 -18 20 0 11 25
14 140 14 l140 0 0 -140z m-1410 -223 c0 -8 -11 -19 -25 -25 -78 -36 -86 -175
-13 -226 21 -15 12 -16 -115 -16 l-137 0 0 133 c0 74 3 137 7 140 3 4 69 7
145 7 109 0 138 -3 138 -13z m350 -127 l0 -140 -131 0 -132 0 27 21 c33 26 56
69 56 106 0 37 -33 90 -70 111 -60 34 -39 42 110 42 l140 0 0 -140z m358 -2
l3 -138 -146 0 -145 0 0 133 c0 74 3 137 7 141 4 3 68 5 142 4 l136 -3 3 -137z
m352 2 l0 -140 -140 0 -140 0 0 140 0 140 140 0 140 0 0 -140z m350 0 l0 -140
-140 0 -140 0 0 140 0 140 140 0 140 0 0 -140z m-1410 -360 l0 -141 -142 3
-143 3 -3 138 -3 137 146 0 145 0 0 -140z m350 131 c0 -5 -9 -12 -20 -16 -38
-12 -70 -63 -70 -112 0 -39 24 -103 40 -103 3 0 16 -9 30 -20 l25 -20 -142 0
-143 0 0 140 0 140 140 0 c80 0 140 -4 140 -9z m317 -33 c-31 -30 -47 -54 -52
-79 -9 -48 16 -105 55 -127 16 -9 30 -20 30 -24 0 -5 -61 -8 -135 -8 l-136 0
40 38 c77 73 66 160 -29 224 -24 16 -19 17 124 17 l149 1 -46 -42z m393 -98
l0 -140 -142 1 c-115 0 -139 2 -123 12 42 26 74 66 80 100 9 47 -18 105 -62
132 -18 11 -32 23 -33 28 0 4 63 7 140 7 l140 0 0 -140z m350 0 l0 -140 -140
0 -140 0 0 140 0 140 140 0 140 0 0 -140z m-1410 -350 l0 -140 -145 0 -145 0
0 140 0 140 145 0 145 0 0 -140z m350 0 l0 -140 -140 0 -140 0 0 140 0 140
140 0 140 0 0 -140z m360 0 l0 -140 -145 0 -145 0 0 140 0 140 145 0 145 0 0
-140z m350 125 c0 -8 -6 -15 -13 -15 -7 0 -26 -13 -41 -29 -56 -59 -43 -159
27 -201 l32 -20 -142 0 -143 0 0 140 0 140 140 0 c118 0 140 -2 140 -15z m350
-125 l0 -140 -137 0 -138 0 32 20 c63 38 81 120 40 181 -12 19 -35 40 -50 47
-52 25 -28 32 113 32 l140 0 0 -140z m-1410 -219 c0 -5 -15 -19 -33 -30 -41
-25 -57 -58 -57 -114 0 -49 19 -80 64 -108 l31 -19 -147 0 -148 0 0 133 c0 74
3 137 7 140 10 11 283 8 283 -2z m350 0 c0 -5 -15 -19 -33 -30 -41 -25 -57
-58 -57 -114 0 -49 19 -80 64 -108 l31 -19 -145 0 -145 0 34 18 c90 48 90 179
0 230 -16 10 -29 20 -29 25 0 4 63 7 140 7 78 0 140 -4 140 -9z m354 0 c3 -5
-10 -18 -30 -30 -76 -45 -82 -138 -13 -203 l40 -38 -138 0 -138 0 30 20 c37
24 65 74 65 115 0 39 -32 90 -70 113 -16 11 -27 22 -23 25 10 11 271 8 277 -2z
m356 -131 l0 -140 -142 0 -143 0 31 19 c90 55 95 172 9 222 -19 12 -35 25 -35
30 0 5 63 9 140 9 l140 0 0 -140z m350 0 l0 -140 -140 0 -140 0 0 140 0 140
140 0 140 0 0 -140z"/>
</g>
</svg>
